<?xml version="1.0" standalone="no"?>
<svg viewBox="0 0 200 200" xmlns="http://www.w3.org/2000/svg">
  <path fill="#D0E2FF" d="M28.7,-48.8C40.9,-42.6,57.2,-42.5,64.7,-35.4C72.1,-28.3,70.7,-14.1,66.8,-2.3C62.8,9.6,56.3,19.1,53,33.4C49.6,47.7,49.5,66.7,41.3,71.6C33,76.5,16.5,67.4,3.6,61.2C-9.2,54.9,-18.5,51.4,-29.8,48.2C-41,45,-54.4,42.1,-57.1,34.1C-59.9,26.1,-52,13,-54.5,-1.5C-57.1,-16,-70,-31.9,-67.1,-39.6C-64.2,-47.3,-45.5,-46.8,-31.6,-52.2C-17.8,-57.5,-8.9,-68.7,-0.4,-68C8.2,-67.4,16.4,-55.1,28.7,-48.8Z" transform="translate(100 100)" />
</svg>
